<?xml version="1.0" encoding="utf-8"?>
<!-- Generator: Adobe Illustrator 22.0.1, SVG Export Plug-In . SVG Version: 6.00 Build 0)  -->
<svg version="1.1" id="Layer_1" xmlns="http://www.w3.org/2000/svg" xmlns:xlink="http://www.w3.org/1999/xlink" x="0px" y="0px"
	 viewBox="0 0 200 77.5" style="enable-background:new 0 0 200 77.5;" xml:space="preserve">
<style type="text/css">
	.st0{fill:#1A1A1A;}
</style>
<g>
	<g>
		<path class="st0" d="M2.9,56.9c0,2.2,1,4.6,2,6.1c1.3,1.7,3,2,4.4,2c2,0,3-0.4,4.4-1.7c0.1-0.1,0.2-0.1,0.3,0l0.4,0.4
			c0.2,0.2,0.2,0.3,0,0.5C13.3,65.5,10.7,67,8,67c-2.1,0-4.4-0.5-6.2-2.8c-1.5-2-1.8-3.6-1.8-5.4c0-4.7,3.3-9.4,8.6-9.4
			c4.2,0,5.4,2.4,5.4,3.2c0,0.9-0.6,1.4-1.5,1.4c-0.9,0-1.6-0.5-2.2-1.6c-0.9-1.6-1.7-1.8-2.7-1.8C5.4,50.7,2.9,52.7,2.9,56.9z"/>
		<path class="st0" d="M20.7,44.7c0-2.4-0.5-2.9-1.9-3.4l-0.7-0.2c-0.2-0.1-0.3-0.1-0.3-0.2v-0.4c0-0.2,0.1-0.2,0.5-0.4l4.2-2.2
			c0.3-0.2,0.6-0.3,0.9-0.3c0.2,0,0.4,0.3,0.3,1c-0.1,0.7-0.1,8.8-0.1,10.8V52h0.2c1.4-1.7,3.7-2.6,5.5-2.6c1.7,0,2.8,0.5,4,1.6
			c1.8,1.7,1.7,3.7,1.7,5.9v2.3c0,2.2,0.1,4.7,0.1,5.5c0,0.5,0.6,0.6,1.5,0.6h0.7c0.3,0,0.4,0.1,0.4,0.4v0.6c0,0.3-0.1,0.5-0.3,0.5
			c-0.3,0-1.6-0.1-3.8-0.1c-2,0-3.4,0.1-3.8,0.1c-0.3,0-0.4-0.1-0.4-0.4v-0.7c0-0.2,0-0.3,0.3-0.3h0.9c0.7,0,1.5-0.1,1.5-0.8
			c0-0.6,0-2.7,0-4v-3.2c0-2.2-0.2-3.8-1.3-4.9c-0.8-0.8-1.6-1.1-2.6-1.1c-1.2,0-2.6,0.4-3.7,1.7c-0.4,0.4-0.8,1.2-0.8,2v8.7
			c0,1.3,0.1,1.6,0.9,1.6h1.2c0.3,0,0.4,0.1,0.4,0.3v0.7c0,0.3-0.1,0.4-0.3,0.4c-0.3,0-2-0.1-3.8-0.1c-2,0-3.5,0.1-3.9,0.1
			c-0.2,0-0.3-0.1-0.3-0.4v-0.7c0-0.3,0.2-0.3,0.6-0.3h0.8c0.6,0,1.2-0.2,1.3-0.6c0.1-0.8,0.1-5.2,0.1-7.8V44.7z"/>
		<path class="st0" d="M54.1,64.8c0.6,0,1.2-0.3,1.4-0.6c0.2-0.2,0.2-0.3,0.4-0.2l0.4,0.3c0.1,0.1,0.2,0.3,0,0.7
			c-0.3,0.6-1.1,2-3.1,2c-1.4,0-2.5-1-2.8-2.7h-0.1c-0.8,1-2.2,1.8-4,2.4C45.5,67,44.8,67,43.9,67c-1,0-2.4-0.8-2.4-3.3
			c0-1.8,0.8-3.4,4-4.8c1.8-0.8,3.9-1.8,4.5-2.3V54c-0.1-0.7-0.1-1.7-0.6-2.2c-0.4-0.5-1.2-0.9-2.4-0.9c-0.8,0-2,0.3-2.6,0.8
			c-0.6,0.5-0.2,1.1-0.2,1.8c0,1.4-0.5,2.3-2.1,2.3c-0.6,0-1-0.4-1-1.3c0-1.3,1.1-2.8,2.8-3.8c1.7-1,3.1-1.4,4.9-1.4
			c1.9,0,2.6,0.6,3.2,1.1c0.8,0.8,0.9,1.8,0.9,2.8v8.5C52.9,64.1,53.4,64.8,54.1,64.8z M50,57.7c-1.4,1.1-5.4,1.9-5.4,5.2
			c0,1.5,0.9,2.2,2.1,2.2c1.2,0,3.3-1.4,3.3-2.5V57.7z"/>
		<path class="st0" d="M61.7,55.2c0-1-0.3-1.5-1.4-2.2l-0.9-0.5c-0.3-0.1-0.3-0.2-0.3-0.4v-0.3c0-0.1,0.1-0.2,0.3-0.3l3.8-1.9
			c0.3-0.2,0.6-0.3,0.9-0.3c0.2,0,0.3,0.2,0.3,0.8l0.2,1.9h0.1c1.1-1.4,3.2-2.7,5.8-2.7c2,0,3.4,0.9,4.6,2c1.5,1.5,2.2,3.2,2.2,6.2
			c0,5.2-3.6,9.4-8.6,9.4c-1.1,0-2.8-0.2-4-0.7v8.4c0,1.1,0.3,1.3,0.9,1.3h1.8c0.3,0,0.4,0.2,0.4,0.4v0.7c0,0.2-0.1,0.4-0.4,0.4
			c-0.2,0-1.6-0.1-4.1-0.1c-2.3,0-3.7,0.1-4,0.1c-0.3,0-0.4-0.1-0.4-0.4v-0.7c0-0.2,0.1-0.4,0.5-0.4h1.6c0.7,0,0.8-0.4,0.8-1
			c0.1-0.9,0.1-3,0.1-7V55.2z M64.6,62.5c0,0.9,0.1,1.6,0.8,2.1c1.1,0.8,2.4,1.1,4,1.1c2.3,0,4.6-1.7,4.6-6.7c0-5.6-2.5-7.8-5.2-7.8
			c-1.7,0-3.3,1-4.3,2.6V62.5z"/>
		<path class="st0" d="M87,61.5c0,3,1.4,3.5,2.1,3.5c0.9,0,2.1-0.2,2.6-0.5c0.2-0.1,0.4-0.1,0.5,0.1l0.2,0.4c0.1,0.2,0,0.3-0.1,0.4
			c-0.4,0.4-2,1.6-4.4,1.6c-2,0-3.9-1.9-3.9-3.4c0-1.6,0.1-5.2,0.1-5.7V57c0-0.7,0-3.4,0.1-5.1h-2.4c-0.4,0-0.6-0.2-0.6-0.5
			s0.2-0.4,0.7-0.7c1-0.6,4-3.6,4.6-5c0.1-0.3,0.3-0.4,0.6-0.4c0.3,0,0.4,0.3,0.4,0.6l-0.2,3.9h5.6c0.2,0,0.4,0.2,0.3,0.4l-0.4,1.4
			c0,0.2-0.1,0.3-0.4,0.3h-5.2C87,53.7,87,55.7,87,57.5V61.5z"/>
		<path class="st0" d="M99.2,55.9c-0.1,0.4-0.1,1-0.1,1.9c0,3.9,2.5,6.9,5.7,6.9c2.4,0,4.2-1.4,4.8-2.7c0.1-0.2,0.2-0.2,0.4-0.2
			l0.5,0.3c0.1,0,0.2,0.2,0,0.6c-0.7,1.6-2.8,4.4-6.4,4.4c-2.3,0-4.8-0.7-6.3-2.8c-1.4-2-1.8-3.5-1.8-6.3c0-1.6,0.4-4.2,2.5-6.4
			c1.7-1.8,3.7-2.1,5.7-2.1c4.6,0,5.9,4.3,5.9,5.9c0,0.6-0.5,0.6-1.1,0.6H99.2z M105.5,54.7c0.8,0,1.1-0.2,1.1-0.6
			c0-0.9-0.5-3.6-3.1-3.6c-1.8,0-3.4,1.2-4.2,4.1H105.5z"/>
		<path class="st0" d="M117.1,55.9c0-2-0.3-2.4-1.4-3l-0.8-0.4c-0.2-0.1-0.3-0.1-0.3-0.3v-0.2c0-0.2,0.1-0.2,0.3-0.4l4-2
			c0.2-0.1,0.4-0.2,0.6-0.2c0.2,0,0.3,0.2,0.3,0.5l0.2,2.8h0.2c1.2-1.8,3.1-3.5,4.8-3.5c1.4,0,2,0.8,2,1.8c0,1.2-1,2-1.7,2
			c-0.4,0-0.8-0.2-1.2-0.3c-0.3-0.2-0.8-0.3-1.3-0.3c-0.6,0-1.7,0.4-2.4,1.7c-0.2,0.4-0.4,1.2-0.4,1.3v8.3c0,1.2,0.3,1.6,1.1,1.6
			h1.9c0.2,0,0.3,0.1,0.3,0.4v0.7c0,0.2,0,0.4-0.2,0.4c-0.2,0-2.1-0.1-4.2-0.1c-2.5,0-4.2,0.1-4.4,0.1c-0.2,0-0.2-0.1-0.2-0.4v-0.7
			c0-0.3,0.1-0.4,0.4-0.4h1.6c0.6,0,0.9-0.2,0.9-0.8c0-1.3,0-2.7,0-4.8V55.9z"/>
		<path class="st0" d="M143.8,64.3c-1.8-2.2-2.2-3.7-2.2-6.5c0-2,1.1-4.6,3.4-6.4c2.1-1.6,4-1.9,5.4-1.9c2.2,0,4.4,1.1,5.6,2.3
			c1.8,1.8,2.7,3.9,2.7,6.5c0,4.4-3.9,8.8-8.8,8.8C148,67,145.5,66.3,143.8,64.3z M155.4,57.8c0-4.4-3.2-7.2-5.3-7.2
			c-1.1,0-2.1,0.2-3.1,1.3c-1.6,1.6-2.1,3.2-2.1,6.3c0,2.2,0.2,3.8,1.5,5.6c0.9,1.3,2.1,2.1,4,2.1C153.4,65.8,155.4,62.1,155.4,57.8
			z"/>
		<path class="st0" d="M179.5,64.4c0,0.6,0.4,0.8,0.9,0.8h1.3c0.4,0,0.4,0.1,0.4,0.4v0.6c0,0.3-0.1,0.4-0.3,0.4
			c-0.3,0-1.5-0.1-3.8-0.1c-2,0-3.3,0.1-3.6,0.1c-0.2,0-0.3-0.1-0.3-0.4v-0.6c0-0.3,0.1-0.4,0.5-0.4h1.2c0.4,0,0.8-0.2,0.8-0.9
			c0-1,0.1-2.3,0.1-3.4v-5.3c0-1.6,0-2.8-1.2-3.6c-1-0.7-1.9-0.7-2.9-0.7c-0.6,0-2,0.3-3.2,1.6c-0.8,0.9-0.9,2-0.9,2.7v8.3
			c0,1.1,0.1,1.3,1,1.3h1c0.3,0,0.4,0.1,0.4,0.4v0.7c0,0.2-0.1,0.4-0.3,0.4c-0.3,0-1.4-0.1-3.5-0.1c-2,0-3.3,0.1-3.6,0.1
			c-0.2,0-0.3-0.1-0.3-0.4v-0.7c0-0.2,0.1-0.4,0.4-0.4h1.2c0.5,0,0.8-0.1,0.8-0.8v-9.4c0-1.2-0.6-1.9-1.6-2.4l-0.3-0.2
			c-0.3-0.1-0.3-0.2-0.3-0.4V52c0-0.2,0.2-0.3,0.4-0.4l3.4-1.9c0.3-0.2,0.6-0.3,0.7-0.3c0.2,0,0.3,0.2,0.3,0.5l0.3,2.4h0.1
			c1.2-1.4,3.5-2.9,5.5-2.9c1.2,0,2.4,0.2,3.4,0.9c1.2,0.8,2.2,2.8,2.2,3.8V64.4z"/>
		<path class="st0" d="M188.6,55.9c-0.1,0.4-0.1,1-0.1,1.9c0,3.9,2.5,6.9,5.7,6.9c2.4,0,4.2-1.4,4.8-2.7c0.1-0.2,0.2-0.2,0.4-0.2
			l0.5,0.3c0.1,0,0.2,0.2,0,0.6c-0.7,1.6-2.8,4.4-6.4,4.4c-2.3,0-4.8-0.7-6.3-2.8c-1.4-2-1.8-3.5-1.8-6.3c0-1.6,0.4-4.2,2.5-6.4
			c1.7-1.8,3.7-2.1,5.7-2.1c4.6,0,5.9,4.3,5.9,5.9c0,0.6-0.5,0.6-1.1,0.6H188.6z M195,54.7c0.8,0,1.1-0.2,1.1-0.6
			c0-0.9-0.5-3.6-3.1-3.6c-1.8,0-3.4,1.2-4.2,4.1H195z"/>
	</g>
	<path class="st0" d="M110.8,0.9c-3-1.8-7-0.7-8.9,2.3l-1.1,1.7c-0.2,0.3-0.6,0.3-0.7,0L98.9,3c-2-3-6-3.9-9-2l0,0
		c-2.8,1.8-3.7,5.3-2.4,8.3c0.2,0.4,0.5,0.8,0.8,1.2l11.9,15.2c0.2,0.3,0.6,0.3,0.8,0l11.8-15.2c0.3-0.4,0.5-0.8,0.7-1.2
		C114.9,6.3,113.8,2.6,110.8,0.9z"/>
</g>
<g>
</g>
<g>
</g>
<g>
</g>
<g>
</g>
<g>
</g>
<g>
</g>
<g>
</g>
<g>
</g>
<g>
</g>
<g>
</g>
<g>
</g>
<g>
</g>
<g>
</g>
<g>
</g>
<g>
</g>
</svg>
